<?xml version="1.0" encoding="utf-8"?>
<!-- Generator: Adobe Illustrator 24.1.3, SVG Export Plug-In . SVG Version: 6.00 Build 0)  -->
<svg version="1.1" id="Laag_1" xmlns="http://www.w3.org/2000/svg" xmlns:xlink="http://www.w3.org/1999/xlink" x="0px" y="0px"
	 width="1953px" height="1335px" viewBox="0 0 1953 1335" style="enable-background:new 0 0 1953 1335;" xml:space="preserve">
<style type="text/css">
	.st0{fill:#FFFFFF;}
</style>
<rect width="1952.9" height="1334.8"/>
<path class="st0" d="M1661.5,306.1c-19.7-8.8-42.8,0.1-51.6,19.8l-134.3,302.3h-324.1l114.3-271.2c8.4-19.9-0.9-42.8-20.8-51.2
	c-19.9-8.4-42.8,1-51.2,20.8l-137.1,325.3c0,0.1-0.1,0.2-0.1,0.3l-133,315.6L794.2,740.3c4.2-9.8,8.4-19.6,12.6-29.4
	c158.6-369.5,159.9-382.2,160.9-392.5c2.1-21.5-13.6-40.6-35.1-42.6c-20.4-2-38.5,12-42.2,31.8c-10.5,36.3-160.2,385.2-273.7,646.6
	L344,264.1c-7.9-20.1-30.6-29.9-50.7-22c-20.1,7.9-29.9,30.6-22,50.7l307.4,777.5c5.8,14.7,19.9,24.4,35.6,24.7c0.2,0,0.5,0,0.7,0
	c15.5,0,29.6-9.2,35.8-23.5c0.6-1.4,47.6-109.2,104.6-241.4l139.4,245.1c7,12.3,20,19.7,33.9,19.7c0.8,0,1.5,0,2.3-0.1
	c14.8-0.9,27.9-10.1,33.7-23.8l153.7-364.9h322.5l-147.5,333.9c-8.7,19.7,0.2,42.8,19.9,51.5c5.1,2.3,10.5,3.3,15.8,3.3
	c15,0,29.3-8.7,35.7-23.3l171.7-388.7c0,0,0,0,0,0l144.7-325.5C1690.1,337.9,1681.2,314.9,1661.5,306.1z"/>
</svg>
